HIERARCHY
ROOT joint_Root
{
	OFFSET 0.0 0.0 0.0
	CHANNELS 6 Xposition Yposition Zposition Zrotation Xrotation Yrotation 
	JOINT Hips
	{
		OFFSET -17.1583 93.1646 452.98
		CHANNELS 6 Xposition Yposition Zposition Zrotation Xrotation Yrotation 
		JOINT Spine
		{
			OFFSET 15.7357 0.0 0.0
			CHANNELS 6 Xposition Yposition Zposition Zrotation Xrotation Yrotation 
			JOINT Chest
			{
				OFFSET 8.98455 -0.406207 0.0
				CHANNELS 6 Xposition Yposition Zposition Zrotation Xrotation Yrotation 
				JOINT Neck
				{
					OFFSET 16.3773 0.0 0.0
					CHANNELS 6 Xposition Yposition Zposition Zrotation Xrotation Yrotation 
					JOINT Head
					{
						OFFSET 6.45672 0.0 0.0
						CHANNELS 6 Xposition Yposition Zposition Zrotation Xrotation Yrotation 
						End Site
						{
							OFFSET 0.0 0.0 0.0
						}
					}
				}
				JOINT Shoulder_L
				{
					OFFSET 12.9942 -0.242716 4.98039
					CHANNELS 6 Xposition Yposition Zposition Zrotation Xrotation Yrotation 
					JOINT UpperArm_L
					{
						OFFSET 5.34809 0.0 0.0
						CHANNELS 6 Xposition Yposition Zposition Zrotation Xrotation Yrotation 
						JOINT LowerArm_L
						{
							OFFSET 24.3286 1.87007e-05 0.0
							CHANNELS 6 Xposition Yposition Zposition Zrotation Xrotation Yrotation 
							JOINT Hand_L
							{
								OFFSET 22.2916 0.0 0.0
								CHANNELS 6 Xposition Yposition Zposition Zrotation Xrotation Yrotation 
								End Site
								{
									OFFSET 0.0 0.0 0.0
								}
							}
						}
					}
				}
				JOINT Shoulder_R
				{
					OFFSET 12.9945 -0.242716 -4.98039
					CHANNELS 6 Xposition Yposition Zposition Zrotation Xrotation Yrotation 
					JOINT UpperArm_R
					{
						OFFSET -5.34813 0.0 0.0
						CHANNELS 6 Xposition Yposition Zposition Zrotation Xrotation Yrotation 
						JOINT LowerArm_R
						{
							OFFSET -24.3289 0.000322201 0.0
							CHANNELS 6 Xposition Yposition Zposition Zrotation Xrotation Yrotation 
							JOINT Hand_R
							{
								OFFSET -22.2915 -0.000108084 0.0
								CHANNELS 6 Xposition Yposition Zposition Zrotation Xrotation Yrotation 
								End Site
								{
									OFFSET 0.0 0.0 0.0
								}
							}
						}
					}
				}
			}
		}
		JOINT UpperLeg_L
		{
			OFFSET -2.19248 -6.46944 0.0
			CHANNELS 6 Xposition Yposition Zposition Zrotation Xrotation Yrotation 
			JOINT LowerLeg_L
			{
				OFFSET 39.0811 0.0 -1.23785e-05
				CHANNELS 6 Xposition Yposition Zposition Zrotation Xrotation Yrotation 
				JOINT Foot_L
				{
					OFFSET 40.9854 0.0 -1.26872e-05
					CHANNELS 6 Xposition Yposition Zposition Zrotation Xrotation Yrotation 
					JOINT Toes_L
					{
						OFFSET 11.7543 0.0 0.0
						CHANNELS 6 Xposition Yposition Zposition Zrotation Xrotation Yrotation 
						End Site
						{
							OFFSET 0.0 0.0 0.0
						}
					}
				}
			}
		}
		JOINT UpperLeg_R
		{
			OFFSET -2.19251 6.46944 0.0
			CHANNELS 6 Xposition Yposition Zposition Zrotation Xrotation Yrotation 
			JOINT LowerLeg_R
			{
				OFFSET -39.0811 -0.00228153 -0.0401928
				CHANNELS 6 Xposition Yposition Zposition Zrotation Xrotation Yrotation 
				JOINT Foot_R
				{
					OFFSET -40.9854 0.0 0.0
					CHANNELS 6 Xposition Yposition Zposition Zrotation Xrotation Yrotation 
					JOINT Toes_R
					{
						OFFSET -11.7543 0.0 0.0
						CHANNELS 6 Xposition Yposition Zposition Zrotation Xrotation Yrotation 
						End Site
						{
							OFFSET 0.0 0.0 0.0
						}
					}
				}
			}
		}
	}
}
MOTION
Frames:	7
Frame Time:	0.0333333
0.000000 0.000000 0.000000 0.000000 0.000000 -0.000000 -1.740690 92.692000 -0.956803 87.840800 0.248136 4.940910 15.735700 0.000005 -0.000001 85.367000 85.831200 -84.052900 8.984550 -0.406207 -0.000000 0.554495 -0.755903 2.629940 16.377300 -0.000001 -0.000001 7.660590 2.558120 -3.171690 6.456720 -0.000001 -0.000000 -6.532640 2.045370 -2.626200 12.994200 -0.242716 4.980390 -93.367200 9.530490 -70.437600 5.348090 -0.000007 -0.000001 -72.745900 18.957200 -0.280534 24.328600 0.000019 0.000005 12.729600 25.596600 -27.604600 22.291600 -0.000001 0.000005 -6.682360 5.077290 5.629880 12.994500 -0.242716 -4.980390 87.307300 7.468710 -70.108800 -5.348130 -0.000001 -0.000004 -70.108900 26.524800 -2.596020 -24.328900 0.000322 -0.000009 1.616340 3.669860 -23.802000 -22.291500 -0.000108 -0.000004 -2.850260 5.236980 1.775360 -2.192480 -6.469440 -0.000000 -177.652000 -3.580580 0.098100 39.081100 -0.000007 -0.000012 0.210145 -0.545232 21.078200 40.985400 -0.000006 -0.000013 2.310130 5.536360 -71.118400 11.754300 -0.000000 0.000003 -0.001029 0.183446 -9.135320 -2.192510 6.469440 -0.000001 -175.590000 8.926240 -175.384000 -39.081100 -0.002282 -0.040193 0.068903 -0.254030 14.473600 -40.985400 0.000008 0.000006 2.266320 4.363690 -69.971900 -11.754300 -0.000006 -0.000006 -0.011315 0.280882 -5.159090
0.000000 0.000000 0.000000 0.000000 0.000000 -0.000000 -1.771060 92.694500 -0.958569 87.823200 0.301652 4.923710 15.735700 0.000005 -0.000001 85.111200 85.821500 -83.779300 8.984550 -0.406207 -0.000000 0.571387 -0.795569 2.665790 16.377300 -0.000001 -0.000001 7.590120 2.492570 -3.119670 6.456720 -0.000001 -0.000000 -6.631150 1.974000 -2.564260 12.994200 -0.242716 4.980390 -93.377800 9.533490 -70.385800 5.348090 -0.000007 -0.000001 -72.770800 17.438100 0.088213 24.328600 0.000019 0.000005 12.655600 23.804200 -29.089700 22.291600 -0.000001 0.000005 -7.390660 5.052010 6.195750 12.994500 -0.242716 -4.980390 87.312100 7.416710 -70.013900 -5.348130 -0.000001 -0.000004 -70.149100 24.438600 -2.011500 -24.328900 0.000322 -0.000009 1.879380 3.770340 -26.535000 -22.291500 -0.000108 -0.000004 -3.338340 5.208880 2.495980 -2.192480 -6.469440 -0.000000 -177.627000 -3.453270 0.076791 39.081100 -0.000007 -0.000012 0.210256 -0.545413 21.082000 40.985400 -0.000006 -0.000013 2.274640 5.485530 -71.134700 11.754300 -0.000000 0.000003 -0.000956 0.182407 -9.177520 -2.192510 6.469440 -0.000001 -175.559000 8.966410 -175.390000 -39.081100 -0.002282 -0.040193 0.067469 -0.249264 14.429700 -40.985400 0.000008 0.000006 2.250740 4.355950 -69.937800 -11.754300 -0.000006 -0.000006 -0.011306 0.280821 -5.161610
0.000000 0.000000 0.000000 0.000000 0.000000 -0.000000 -1.792580 92.698800 -0.947434 87.807600 0.216729 4.826310 15.735700 0.000005 -0.000001 85.443500 85.827400 -84.104900 8.984550 -0.406207 -0.000000 0.563082 -0.746866 2.678910 16.377300 -0.000001 -0.000001 7.460900 2.455980 -2.966850 6.456720 -0.000001 -0.000000 -6.850510 1.995470 -2.446980 12.994200 -0.242716 4.980390 -93.413400 9.586560 -70.295200 5.348090 -0.000007 -0.000001 -72.639200 15.380100 0.646981 24.328600 0.000019 0.000005 12.783500 21.544500 -31.711200 22.291600 -0.000001 0.000005 -8.946810 5.003330 7.252320 12.994500 -0.242716 -4.980390 87.349300 7.269060 -69.902700 -5.348130 -0.000001 -0.000004 -70.350100 21.935800 -1.319560 -24.328900 0.000322 -0.000009 1.900520 3.300210 -29.974700 -22.291500 -0.000108 -0.000004 -3.794770 5.186690 3.051500 -2.192480 -6.469440 -0.000000 -177.601000 -3.515310 0.006716 39.081100 -0.000007 -0.000012 0.210190 -0.545926 21.057900 40.985400 -0.000006 -0.000013 2.258350 5.473240 -71.149300 11.754300 -0.000000 0.000003 -0.000997 0.182994 -9.153650 -2.192510 6.469440 -0.000001 -175.539000 8.975520 -175.478000 -39.081100 -0.002282 -0.040193 0.065579 -0.242074 14.420800 -40.985400 0.000008 0.000006 2.109800 4.445500 -69.906800 -11.754300 -0.000006 -0.000006 -0.011273 0.280581 -5.171440
0.000000 0.000000 0.000000 0.000000 0.000000 -0.000000 -1.826040 92.695200 -0.955264 87.779700 0.229856 4.765490 15.735700 0.000005 -0.000001 85.237900 85.808100 -83.889700 8.984550 -0.406207 -0.000000 0.599570 -0.780071 2.698630 16.377300 -0.000001 -0.000001 7.237190 2.419290 -2.706270 6.456720 -0.000001 -0.000000 -7.171420 2.050650 -2.196680 12.994200 -0.242716 4.980390 -93.469200 9.622510 -70.065800 5.348090 -0.000007 -0.000001 -72.390100 13.293200 1.351690 24.328600 0.000019 0.000005 13.854500 19.894400 -35.933700 22.291600 -0.000001 0.000005 -10.358900 4.965550 8.044780 12.994500 -0.242716 -4.980390 87.363900 7.187100 -69.796000 -5.348130 -0.000001 -0.000004 -70.523300 18.509700 -0.490679 -24.328900 0.000322 -0.000009 2.300180 3.358010 -34.447000 -22.291500 -0.000108 -0.000004 -4.349440 5.165320 3.575110 -2.192480 -6.469440 -0.000000 -177.585000 -3.319780 -0.104070 39.081100 -0.000007 -0.000012 0.213433 -0.551834 21.145300 40.985400 -0.000006 -0.000013 2.193140 5.286380 -71.255800 11.754300 -0.000000 0.000003 -0.001271 0.186808 -8.998640 -2.192510 6.469440 -0.000001 -175.454000 8.922000 -175.527000 -39.081100 -0.002282 -0.040193 0.065883 -0.243968 14.380500 -40.985400 0.000008 0.000006 2.166210 4.356160 -69.883000 -11.754300 -0.000006 -0.000006 -0.011181 0.279927 -5.198210
0.000000 0.000000 0.000000 0.000000 0.000000 -0.000000 -1.863320 92.709200 -0.980479 87.750200 0.294462 4.609960 15.735700 0.000005 -0.000001 85.423700 85.831500 -84.062400 8.984550 -0.406207 -0.000000 0.554818 -0.750604 2.724280 16.377300 -0.000001 -0.000001 7.104260 2.402600 -2.344840 6.456720 -0.000001 -0.000000 -7.795480 1.989180 -1.711650 12.994200 -0.242716 4.980390 -93.502600 9.667200 -69.973600 5.348090 -0.000007 -0.000001 -72.076300 10.905500 2.153120 24.328600 0.000019 0.000005 16.193400 18.991500 -41.743300 22.291600 -0.000001 0.000005 -11.309100 4.941700 8.536070 12.994500 -0.242716 -4.980390 87.362900 7.089490 -69.534700 -5.348130 -0.000001 -0.000004 -70.694000 14.804000 0.438905 -24.328900 0.000322 -0.000009 2.799340 3.334230 -40.067900 -22.291500 -0.000108 -0.000004 -4.241870 5.112110 4.830720 -2.192480 -6.469440 -0.000000 -177.553000 -3.208410 -0.265431 39.081100 -0.000007 -0.000012 0.213403 -0.552892 21.105800 40.985400 -0.000006 -0.000013 2.151300 5.235120 -71.249700 11.754300 -0.000000 0.000003 -0.001121 0.184745 -9.082520 -2.192510 6.469440 -0.000001 -175.393000 8.944480 -175.655000 -39.081100 -0.002282 -0.040193 0.062806 -0.233860 14.268800 -40.985400 0.000008 0.000006 2.050830 4.402070 -69.781200 -11.754300 -0.000006 -0.000006 -0.011267 0.280541 -5.173060
0.000000 0.000000 0.000000 0.000000 0.000000 -0.000000 -1.892890 92.711700 -0.991552 87.698600 0.332058 4.479850 15.735700 0.000005 -0.000001 85.285200 85.851500 -83.889500 8.984550 -0.406207 -0.000000 0.513880 -0.770060 2.792850 16.377300 -0.000001 -0.000001 6.950130 2.398850 -1.836680 6.456720 -0.000001 -0.000000 -8.570460 2.007370 -1.021450 12.994200 -0.242716 4.980390 -93.522800 9.650590 -69.835200 5.348090 -0.000007 -0.000001 -71.799600 8.512690 3.066560 24.328600 0.000019 0.000005 18.965700 17.517800 -48.784600 22.291600 -0.000001 0.000005 -11.311500 4.899970 9.377800 12.994500 -0.242716 -4.980390 87.398200 6.913780 -69.318600 -5.348130 -0.000001 -0.000004 -70.753900 11.376800 1.328130 -24.328900 0.000322 -0.000009 3.450460 3.244910 -46.809000 -22.291500 -0.000108 -0.000004 -3.749760 5.055330 6.117430 -2.192480 -6.469440 -0.000000 -177.521000 -2.992380 -0.433825 39.081100 -0.000007 -0.000012 0.214168 -0.553598 21.150100 40.985400 -0.000006 -0.000013 2.103830 5.087790 -71.254600 11.754300 -0.000000 0.000003 -0.000875 0.181236 -9.225100 -2.192510 6.469440 -0.000001 -175.333000 9.077350 -175.769000 -39.081100 -0.002282 -0.040193 0.060616 -0.226208 14.210700 -40.985400 0.000008 0.000006 1.955950 4.493810 -69.692600 -11.754300 -0.000006 -0.000006 -0.011203 0.280082 -5.191850
0.000000 0.000000 0.000000 0.000000 0.000000 -0.000000 -1.923980 92.728300 -1.024250 87.660900 0.503481 4.338530 15.735700 0.000005 -0.000001 84.607800 85.875200 -83.168600 8.984550 -0.406207 -0.000000 0.459676 -0.866726 2.879920 16.377300 -0.000001 -0.000001 6.723060 2.297560 -1.170900 6.456720 -0.000001 -0.000000 -9.273140 1.918750 -0.165571 12.994200 -0.242716 4.980390 -93.481700 9.557280 -69.875100 5.348090 -0.000007 -0.000001 -71.568300 5.932390 3.852390 24.328600 0.000019 0.000005 21.584000 15.285100 -56.318900 22.291600 -0.000001 0.000005 -10.748600 4.848780 10.382800 12.994500 -0.242716 -4.980390 87.444200 6.714350 -69.104600 -5.348130 -0.000001 -0.000004 -70.737800 7.962250 2.068850 -24.328900 0.000322 -0.000009 4.714260 3.383130 -54.412300 -22.291500 -0.000108 -0.000004 -3.300910 5.012910 7.042820 -2.192480 -6.469440 -0.000000 -177.513000 -2.684420 -0.595810 39.081100 -0.000007 -0.000012 0.218061 -0.564283 21.128900 40.985400 -0.000006 -0.000013 2.055120 4.963270 -71.346300 11.754300 -0.000000 0.000003 -0.001011 0.183198 -9.145370 -2.192510 6.469440 -0.000001 -175.307000 9.313890 -175.873000 -39.081100 -0.002282 -0.040193 0.056209 -0.210714 14.087100 -40.985400 0.000008 0.000006 1.772990 4.647800 -69.612000 -11.754300 -0.000006 -0.000006 -0.011631 0.283113 -5.067740
